# xmcd
#
# Track frame offsets: 
#        150
#        23158
#        41739
#        63838
#        84516
#        100373
#        125095
#        141332
#        162584
#        178912
#        191788
#
# Disc length: 2761 seconds
#
# Revision: 0
# Processed by: cddbd v1.5.1PL0 Copyright (c) Steve Scherf et al.
# Submitted via: ExactAudioCopy v0.95a5
#
DISCID=a20ac70b
DTITLE=Kenny Chesney - When the Sun Goes Down
DYEAR=1900
DGENRE=Country
TTITLE0=There Goes My Life
TTITLE1=I Go Back
TTITLE2=When the Sun Goes Down
TTITLE3=The woman with you
TTITLE4=some people change
TTITLE5=Anything but mine
TTITLE6=Keg in the Closet
TTITLE7=When I think about Leaving
TTITLE8=Being drunk's a lot like loving you
TTITLE9=Outta Here
TTITLE10=Old Blue Chair
EXTD=
EXTT0=
EXTT1=
EXTT2=
EXTT3=
EXTT4=
EXTT5=
EXTT6=
EXTT7=
EXTT8=
EXTT9=
EXTT10=
PLAYORDER=
